<?xml version="1.0" standalone="no"?><!DOCTYPE svg PUBLIC "-//W3C//DTD SVG 1.1//EN" "http://www.w3.org/Graphics/SVG/1.1/DTD/svg11.dtd"><svg t="1732363560002" class="icon" viewBox="0 0 1024 1024" version="1.1" xmlns="http://www.w3.org/2000/svg" p-id="4634" xmlns:xlink="http://www.w3.org/1999/xlink" width="200" height="200"><path d="M305.258268 255.887109a30.104366 30.104366 0 0 1-30.104365-30.104366V75.260914a30.104366 30.104366 0 0 1 60.208731 0v150.521829a30.104366 30.104366 0 0 1-30.104366 30.104366z m413.483464 0a30.104366 30.104366 0 0 1-30.104366-30.104366V75.260914a30.104366 30.104366 0 0 1 60.208731 0v150.521829a30.104366 30.104366 0 0 1-30.104365 30.104366zM52.532118 307.365574h918.935764v60.208731H52.532118zM511.774217 843.825371l-21.223578-20.922534L331.148023 665.306482c-26.792885-26.792885-41.544025-47.414376-41.544025-85.345876A140.587388 140.587388 0 0 1 331.148023 479.562546a142.092606 142.092606 0 0 1 180.626194-17.008967 142.243128 142.243128 0 0 1 180.626195 17.008967 124.782596 124.782596 0 0 1 0 185.894458L533.148317 822.902837z m-80.077613-346.200206a81.733353 81.733353 0 0 0-81.883874 81.733353c0 21.825665 8.579744 27.394973 23.93297 42.898721l138.028517 136.974864 137.877995-136.372776c31.910628-31.910628 31.910628-68.788476 0-100.699104a81.883875 81.883875 0 0 0-115.751286 0l-21.073056 21.073056-23.330883-21.073056a81.432309 81.432309 0 0 0-57.499339-23.93297z" fill="#ffffff" p-id="4635"></path><path d="M908.549757 105.36528h-104.462149v60.208731h104.462149A55.241511 55.241511 0 0 1 963.339703 220.514479v642.87873A55.241511 55.241511 0 0 1 908.549757 918.183154H115.450243A55.241511 55.241511 0 0 1 60.208731 863.393209V220.514479A55.392033 55.392033 0 0 1 115.450243 165.574011h104.462149V105.36528H115.450243A115.600764 115.600764 0 0 0 0 220.514479v642.87873A115.600764 115.600764 0 0 0 115.450243 978.391886h793.099514A115.600764 115.600764 0 0 0 1023.548435 863.393209V220.514479A115.600764 115.600764 0 0 0 908.549757 105.36528z" fill="#ffffff" p-id="4636"></path><path d="M633.395855 139.533735V105.064236H390.604145v60.208732h242.79171V139.533735z" fill="#ffffff" p-id="4637"></path></svg>